<svg width="188" height="56" viewBox="0 0 188 56" fill="none" xmlns="http://www.w3.org/2000/svg">
<path d="M48.8975 56H6.98535C5.13272 56 3.35596 55.2625 2.04596 53.9498C0.735949 52.637 0 50.8565 0 49V7C0 5.14348 0.735949 3.36301 2.04596 2.05025C3.35596 0.737499 5.13272 0 6.98535 0H48.8975C50.7501 0 52.5268 0.737499 53.8368 2.05025C55.1469 3.36301 55.8828 5.14348 55.8828 7V49C55.8828 50.8565 55.1469 52.637 53.8368 53.9498C52.5268 55.2625 50.7501 56 48.8975 56ZM40.8206 35.1203C40.8206 31.2309 38.2513 27.7309 34.2719 26.9041C37.5681 25.9328 40.0413 23.2597 40.0413 19.1275C40.0413 13.7331 35.92 10.2812 28.9892 10.2812L15.1342 10.3184L15.0622 44.4062H29.5262C36.6993 44.4062 40.8206 40.7619 40.8206 35.1247V35.1203ZM26.5989 16.8175C26.1814 16.9178 25.793 17.1144 25.4646 17.3916C25.1362 17.6688 24.877 18.019 24.7074 18.4143C24.5378 18.8096 24.4627 19.2391 24.4879 19.6686C24.5131 20.0981 24.6379 20.5158 24.8526 20.8884C25.3672 21.7442 25.8055 22.6439 26.1623 23.5769C26.4329 24.3013 26.5575 25.0723 26.5291 25.8453C26.4768 26.647 26.28 27.4326 25.9484 28.1641C25.4512 29.2625 24.8325 30.3015 24.1038 31.2616C23.6243 31.8864 23.3328 32.6355 23.2634 33.4206C23.2584 33.4456 23.2503 33.4698 23.2394 33.4928V33.9872C23.2765 34.2059 23.3027 34.4247 23.3485 34.6434C23.5209 35.4172 23.9224 36.1208 24.5004 36.6621C25.0784 37.2035 25.806 37.5574 26.588 37.6775C26.695 37.6928 26.8063 37.7147 26.9111 37.7322H27.4C27.6183 37.6972 27.8366 37.6687 28.0396 37.6228C28.8114 37.4414 29.5109 37.0315 30.047 36.4462C30.5831 35.861 30.931 35.1276 31.0455 34.3416C31.0586 34.2322 31.0804 34.1228 31.0979 34.0134V33.5125C31.063 33.2938 31.0368 33.0947 30.9931 32.8869C30.8843 32.3476 30.6609 31.838 30.3382 31.3928C29.7283 30.5704 29.1845 29.7006 28.712 28.7919C28.3193 28.0491 28.046 27.2488 27.9021 26.4206C27.772 25.555 27.8468 24.6708 28.1204 23.8394C28.4488 22.8955 28.8761 21.9892 29.3952 21.1356C29.6263 20.7645 29.789 20.3547 29.8755 19.9259C29.985 19.2222 29.819 18.5033 29.4123 17.9192C29.0056 17.3352 28.3895 16.9311 27.6925 16.7913L27.3935 16.7344H26.9831C26.8499 16.7606 26.7146 16.7847 26.5836 16.8131" fill="#0F2853"/>
<path d="M85.3908 28.6746C86.112 29.5928 86.4975 30.7303 86.4829 31.898C86.4829 33.6462 85.8735 35.0303 84.6546 36.0501C83.4358 37.0699 81.7378 37.5798 79.5607 37.5798H69.8535V16.7144H79.2462C81.365 16.7144 83.0244 17.2002 84.2243 18.172C85.4243 19.1437 86.0228 20.4607 86.0199 22.123C86.0199 23.3512 85.698 24.371 85.0544 25.1825C84.3979 26.0081 83.496 26.6035 82.479 26.8827C83.6353 27.1096 84.6699 27.7487 85.3908 28.6812V28.6746ZM74.9321 25.1606H78.2611C79.0911 25.1606 79.7311 24.9771 80.1767 24.6099C80.6223 24.2428 80.8451 23.7052 80.8451 22.9906C80.8451 22.276 80.6267 21.734 80.1767 21.356C79.7268 20.9779 79.0846 20.7922 78.2611 20.7922H74.9321V25.1606ZM80.6507 32.9011C81.1153 32.515 81.3483 31.9555 81.3497 31.2227C81.3664 30.899 81.3096 30.5758 81.1836 30.2772C81.0576 29.9786 80.8658 29.7124 80.6224 29.4985C80.1352 29.0833 79.469 28.8735 78.6171 28.8735H74.9321V33.4802H78.6761C79.528 33.4802 80.1833 33.2871 80.642 32.9011" fill="#054E8B"/>
<path d="M89.801 18.4822C89.5288 18.2377 89.3125 17.9374 89.1666 17.6018C89.0207 17.2662 88.9488 16.9032 88.9556 16.5373C88.9484 16.1681 89.02 15.8017 89.1658 15.4625C89.3116 15.1233 89.5281 14.8192 89.801 14.5705C90.3989 14.0336 91.1826 13.7514 91.9853 13.7838C92.7783 13.755 93.5512 14.0373 94.1391 14.5705C94.4119 14.8192 94.6284 15.1233 94.7742 15.4625C94.92 15.8017 94.9917 16.1681 94.9844 16.5373C94.9913 16.9032 94.9193 17.2662 94.7734 17.6018C94.6276 17.9374 94.4112 18.2377 94.1391 18.4822C93.552 19.017 92.7787 19.3002 91.9853 19.2711C91.1821 19.3036 90.3982 19.0205 89.801 18.4822V18.4822ZM94.5104 37.5732H89.4296V20.9931H94.5104V37.5732Z" fill="#054E8B"/>
<path d="M101.358 36.7712C100.076 36.0927 99.0153 35.0614 98.3002 33.7991C97.5659 32.4094 97.1833 30.8608 97.186 29.2889C97.1887 27.717 97.5765 26.1697 98.3155 24.7825C99.0394 23.5125 100.111 22.476 101.404 21.7951C102.769 21.112 104.275 20.7563 105.801 20.7563C107.328 20.7563 108.833 21.112 110.198 21.7951C111.491 22.4766 112.563 23.5129 113.287 24.7825C114.031 26.1668 114.419 27.7145 114.416 29.2862C114.414 30.8579 114.02 32.4042 113.272 33.786C112.537 35.0575 111.455 36.093 110.153 36.7712C108.791 37.4762 107.276 37.8335 105.742 37.8114C104.218 37.8364 102.711 37.4787 101.361 36.7712H101.358ZM108.219 32.3459C108.902 31.6335 109.245 30.6136 109.246 29.2864C109.247 27.9592 108.915 26.9394 108.25 26.227C107.935 25.8907 107.555 25.6224 107.133 25.4386C106.71 25.2548 106.255 25.1593 105.794 25.1581C105.334 25.1569 104.878 25.2499 104.455 25.4315C104.031 25.613 103.65 25.8793 103.333 26.2139C102.679 26.9146 102.352 27.9395 102.352 29.2886C102.352 30.6377 102.674 31.6575 103.318 32.3481C103.618 32.6932 103.991 32.968 104.41 33.153C104.828 33.3381 105.283 33.4288 105.74 33.4189C106.205 33.4251 106.667 33.3329 107.094 33.1484C107.521 32.9638 107.905 32.6911 108.219 32.3481" fill="#054E8B"/>
<path d="M138.566 17.0117V37.5734H135.862V22.2412L129.03 37.5734H127.129L120.266 22.2128V37.5734H117.562V17.0117H120.474L128.079 34.0092L135.683 17.0117H138.566Z" fill="#1B96D8"/>
<path d="M143.141 24.9899C143.776 23.7774 144.739 22.7675 145.919 22.0747C147.111 21.378 148.47 21.0185 149.851 21.0345C151.149 21.0021 152.431 21.3199 153.564 21.9545C154.543 22.4946 155.357 23.2917 155.917 24.26V21.288H158.649V37.5708H155.917V34.542C155.343 35.5314 154.513 36.3476 153.514 36.9043C152.389 37.5464 151.111 37.8705 149.816 37.8418C148.431 37.8619 147.068 37.4907 145.884 36.771C144.703 36.0457 143.747 35.007 143.121 33.7705C142.431 32.4093 142.084 30.8997 142.112 29.3737C142.078 27.8512 142.425 26.3444 143.121 24.9899H143.141ZM155.152 26.194C154.694 25.3211 153.999 24.5948 153.147 24.0983C152.302 23.6228 151.349 23.3718 150.379 23.3691C149.41 23.3665 148.455 23.6122 147.607 24.083C146.761 24.5739 146.07 25.2954 145.618 26.1634C145.103 27.1535 144.846 28.2579 144.873 29.3737C144.846 30.5035 145.102 31.6221 145.618 32.6276C146.07 33.5037 146.759 34.2346 147.607 34.7365C148.446 35.2233 149.399 35.4747 150.369 35.4642C151.343 35.474 152.302 35.2227 153.147 34.7365C154.001 34.2369 154.696 33.5058 155.152 32.6276C155.665 31.6314 155.921 30.5224 155.895 29.4021C155.922 28.2871 155.666 27.1835 155.152 26.194Z" fill="#1B96D8"/>
<path d="M167.961 21.767C168.947 21.2251 170.059 20.9579 171.183 20.9934V23.7862H170.471C167.442 23.7862 165.927 25.4303 165.925 28.7185V37.5734H163.223V21.2906H165.925V23.9348C166.378 23.0289 167.086 22.2753 167.961 21.767" fill="#1B96D8"/>
<path d="M183.394 37.573L177.007 30.3833V37.573H174.302V15.5864H177.007V28.5104L183.273 21.2901H187.048L179.383 29.402L187.076 37.573H183.394Z" fill="#1B96D8"/>
</svg>
